<svg xmlns="http://www.w3.org/2000/svg" width="128" height="32" viewBox="0 0 128 32" role="img" aria-label="Clario">
  <title>Clario</title>
  <g fill="none" fill-rule="evenodd">
    <rect rx="6" width="32" height="32" fill="#111827"/>
    <path fill="#FFFFFF" d="M18.6 22c-3.315 0-6-2.685-6-6s2.685-6 6-6c1.23 0 2.374.366 3.32 1.0.47.312.6.946.288 1.416-.312.47-.946.6-1.416.288-.6-.399-1.3-.62-2.192-.62-2.21 0-4 1.79-4 4s1.79 4 4 4c.893 0 1.593-.221 2.192-.62.47-.312 1.104-.182 1.416.288.312.47.182 1.104-.288 1.416-.946.634-2.09 1.0-3.32 1.0z"/>
    <text x="44" y="22" font-family="Montserrat, Arial, sans-serif" font-size="18" font-weight="700" fill="#111827">Clario</text>
  </g>
</svg>
