<?xml version="1.0" encoding="UTF-8"?>
<!-- Clario wordmark + orbital icon (dark version) -->
<svg xmlns="http://www.w3.org/2000/svg" viewBox="0 0 860 160" width="860" height="160" role="img" aria-label="Clario">
  <g id="logo" fill="none" fill-rule="evenodd">
    <!-- Orbital mark -->
    <g id="orbital" transform="translate(18,18)">
      <path d="M94 62c0 34.242-27.758 62-62 62C22.78 124 14.05 121.6 6.8 117" stroke="#5CA3C2" stroke-width="8" stroke-linecap="round"/>
      <path d="M124 62c0-34.242-27.758-62-62-62C42.78 0 34.05 2.4 26.8 7" stroke="#5CA3C2" stroke-width="8" stroke-linecap="round"/>
      <circle cx="18" cy="110" r="14" fill="#5CA3C2"/>
      <circle cx="110" cy="18" r="14" fill="#5CA3C2"/>
      <circle cx="124" cy="110" r="14" fill="#5CA3C2"/>
    </g>

    <!-- Wordmark for dark background -->
    <g id="wordmark" transform="translate(220,30)">
      <path fill="#FFFFFF" d="M78.8 95c-26.2 0-45-18.4-45-43.2 0-24.8 18.8-43.6 45-43.6 9.5 0 18.1 2.2 25.4 6.4 3.3 1.9 4.3 6.2 2.4 9.4-1.9 3.3-6.2 4.3-9.4 2.4-5.3-3-11.4-4.6-18.4-4.6-17.8 0-30.6 12.3-30.6 30s12.8 29.6 30.6 29.6c7.2 0 13.4-1.6 18.6-4.6 3.3-1.9 7.5-0.8 9.3 2.5 1.8 3.3 0.7 7.5-2.6 9.3C96.6 92.8 88 95 78.8 95z"/>
      <path fill="#FFFFFF" d="M142.5 11.2h14.4V94H142.5z"/>
      <path fill="#FFFFFF" d="M173.5 53c0-24.6 16-44.4 40.8-44.4 24.6 0 40.6 19.8 40.6 44.4s-16 44.2-40.6 44.2C189.5 97.2 173.5 77.6 173.5 53zm67 0c0-16.5-10.6-30-26.2-30-15.8 0-26.4 13.5-26.4 30s10.6 29.8 26.4 29.8c15.6 0 26.2-13.3 26.2-29.8z"/>
      <path fill="#FFFFFF" d="M343.7 32.2c-10 0-17 6.6-17 17.2V94h-14.2V11.2h14.2v8.8c4.8-6.6 12-11.4 22.4-11.4 16.8 0 26.6 11.2 26.6 27.8V94h-14.4V39.8c0-4-1.2-7.2-3.4-9.5-2.2-2.3-5.4-3.6-9.2-3.6z"/>
      <path fill="#FFFFFF" d="M405 11.2h14.4V94H405z"/>
      <circle cx="412.2" cy="1.6" r="7.6" fill="#FFFFFF"/>
      <path fill="#FFFFFF" d="M446.6 53c0-24.6 16-44.4 40.8-44.4 11.2 0 20.6 4 27.2 10.8l-9 9.8c-4.8-4.8-10.8-7.4-18.2-7.4-15.8 0-26.4 13.5-26.4 30s10.6 29.8 26.4 29.8c7.4 0 13.6-2.6 18.6-7.6l9 9c-7.2 7.4-16.8 11.6-27.8 11.6-24.8 0-40.6-19.6-40.6-44z"/>
    </g>
  </g>
</svg>